<?xml version="1.0" encoding="iso-8859-1"?>
<!-- Generator: Adobe Illustrator 19.0.0, SVG Export Plug-In . SVG Version: 6.00 Build 0)  -->
<svg version="1.1" id="Layer_1" xmlns="http://www.w3.org/2000/svg" xmlns:xlink="http://www.w3.org/1999/xlink" x="0px" y="0px"
	 viewBox="0 0 512 512" style="enable-background:new 0 0 512 512;" xml:space="preserve">
<path style="fill:#7BCC29;" d="M505.321,142.468L371.754,42.293c-11.02-8.237-26.713-0.334-26.713,13.357v33.392H183.647
	c-9.238,0-16.696,7.457-16.696,16.696v100.064c0,9.238,7.458,16.696,16.696,16.696h161.394V256
	c0,13.802,15.694,21.593,26.713,13.357l133.567-100.175C514.226,162.503,514.226,149.147,505.321,142.468z"/>
<path style="fill:#50B9FF;" d="M140.233,469.71L6.666,369.535c-8.87-6.664-8.906-20.026,0-26.718l133.567-100.175
	c11.019-8.27,26.718-0.643,26.718,13.359v33.392h161.394c9.217,0,16.696,7.479,16.696,16.696v100.064
	c0,9.217-7.479,16.696-16.696,16.696H166.951v33.503C166.951,470.181,151.148,477.886,140.233,469.71z"/>
<path style="fill:#48A7E6;" d="M328.345,289.392h-72.349v133.456h72.349c9.217,0,16.696-7.479,16.696-16.696V306.088
	C345.041,296.871,337.562,289.392,328.345,289.392z"/>
<path style="fill:#6EB825;" d="M505.321,169.182L371.754,269.357c-11.02,8.237-26.713,0.445-26.713-13.357v-33.503h-89.045V89.041
	h89.045V55.65c0-13.691,15.694-21.593,26.713-13.357l133.567,100.175C514.226,149.147,514.226,162.503,505.321,169.182z"/>
<g>
</g>
<g>
</g>
<g>
</g>
<g>
</g>
<g>
</g>
<g>
</g>
<g>
</g>
<g>
</g>
<g>
</g>
<g>
</g>
<g>
</g>
<g>
</g>
<g>
</g>
<g>
</g>
<g>
</g>
</svg>
